<svg width="24" height="25" viewBox="0 0 24 25" fill="none" xmlns="http://www.w3.org/2000/svg">
<g id="feather-icon / eye-off">
<path id="Shape (Stroke)" fill-rule="evenodd" clip-rule="evenodd" d="M11.9973 4.99999C11.3291 4.99842 10.663 5.07455 10.0124 5.22684C9.74352 5.28977 9.47453 5.12283 9.4116 4.85395C9.34866 4.58508 9.51561 4.31609 9.78448 4.25315C10.5104 4.08324 11.2535 3.99829 11.999 3.99999C15.6985 4.00022 18.5713 6.11332 20.4882 8.15802C21.4513 9.18529 22.188 10.2107 22.6841 10.9787C22.9324 11.3633 23.1212 11.6846 23.2487 11.9111C23.3124 12.0244 23.3608 12.1141 23.3937 12.1763C23.4102 12.2074 23.4228 12.2316 23.4314 12.2484L23.4415 12.2681L23.4443 12.2737L23.4452 12.2754C23.4453 12.2756 23.4457 12.2764 22.9984 12.5L22.5575 12.2643C22.5158 12.3423 22.4735 12.4201 22.4306 12.4975C22.4144 12.468 22.3966 12.436 22.3771 12.4014C22.2584 12.1904 22.0801 11.8867 21.844 11.5213C21.3713 10.7893 20.6706 9.8147 19.7587 8.84197C17.9257 6.88677 15.2987 4.99999 11.9984 4.99999L11.9973 4.99999ZM22.4306 12.4975C21.8668 13.5158 21.2055 14.4772 20.4559 15.3681C20.2781 15.5794 20.3052 15.8948 20.5165 16.0726C20.7278 16.2504 21.0432 16.2232 21.221 16.0119C22.0725 15 22.816 13.902 23.4394 12.7357C23.5158 12.5927 23.5182 12.4214 23.4457 12.2764L22.9984 12.5C22.5512 12.7236 22.5513 12.7237 22.5513 12.7238L22.5495 12.7203L22.5421 12.7057C22.5352 12.6922 22.5244 12.6715 22.5099 12.644C22.4903 12.607 22.4639 12.5578 22.4306 12.4975ZM6.45739 6.25654C6.62498 6.47602 6.58292 6.78979 6.36345 6.95738C4.39974 8.45689 2.76752 10.3451 1.56807 12.503C1.58423 12.5323 1.60198 12.5642 1.62133 12.5986C1.73999 12.8096 1.91836 13.1133 2.15439 13.4787C2.62709 14.2107 3.32783 15.1853 4.23977 16.158C6.072 18.1124 8.69759 19.9984 11.9959 20C14.0369 19.9658 16.0134 19.2798 17.6369 18.0423C17.8565 17.8749 18.1702 17.9173 18.3377 18.1369C18.5051 18.3565 18.4627 18.6702 18.2431 18.8376C16.4488 20.2053 14.264 20.963 12.0082 20.9999L12 21.0001C8.30025 21.0001 5.42724 18.8868 3.51023 16.842C2.54717 15.8147 1.81041 14.7893 1.31436 14.0213C1.06602 13.6367 0.877193 13.3154 0.749759 13.0889C0.686023 12.9756 0.637588 12.8859 0.604692 12.8237C0.588242 12.7926 0.575673 12.7684 0.567013 12.7516L0.556958 12.7319L0.554135 12.7263L0.553277 12.7246C0.553169 12.7244 0.552786 12.7236 1 12.5L0.552786 12.7236C0.480131 12.5783 0.482605 12.4067 0.559422 12.2636C1.83702 9.88266 3.60902 7.80248 5.75655 6.16261C5.97602 5.99501 6.2898 6.03707 6.45739 6.25654ZM10.2458 10.0391C10.4341 10.2412 10.4229 10.5575 10.2209 10.7458C9.55202 11.369 9.2767 12.3077 9.50291 13.1934C9.72912 14.0792 10.4208 14.7709 11.3066 14.9971C12.1923 15.2233 13.131 14.948 13.7542 14.2791C13.9424 14.0771 14.2588 14.0659 14.4609 14.2542C14.6629 14.4424 14.6741 14.7588 14.4858 14.9609C13.6133 15.8972 12.2992 16.2827 11.0591 15.966C9.81903 15.6493 8.8507 14.681 8.53401 13.4409C8.21731 12.2008 8.60276 10.8867 9.53914 10.0142C9.74117 9.82594 10.0576 9.8371 10.2458 10.0391Z" fill="#414141"/>
<path id="Shape (Stroke)_2" fill-rule="evenodd" clip-rule="evenodd" d="M0.646447 1.14645C0.841709 0.951184 1.15829 0.951184 1.35355 1.14645L23.3536 23.1464C23.5488 23.3417 23.5488 23.6583 23.3536 23.8536C23.1583 24.0488 22.8417 24.0488 22.6464 23.8536L0.646447 1.85355C0.451184 1.65829 0.451184 1.34171 0.646447 1.14645Z" fill="#414141"/>
</g>
</svg>
